HIERARCHY
ROOT Hips
{
	OFFSET 0.000000 0.000000 0.000000
	CHANNELS 6 Xposition Yposition Zposition Zrotation Yrotation Xrotation 
	JOINT LHipJoint
	{
		OFFSET 0.000000 0.000000 0.000000
		CHANNELS 3 Zrotation Yrotation Xrotation
		JOINT LeftUpLeg
		{
			OFFSET 1.363060 -1.794630 0.839290
			CHANNELS 3 Zrotation Yrotation Xrotation
			JOINT LeftLeg
			{
				OFFSET 2.448110 -6.726130 0.000000
				CHANNELS 3 Zrotation Yrotation Xrotation
				JOINT LeftFoot
				{
					OFFSET 2.562200 -7.039590 0.000000
					CHANNELS 3 Zrotation Yrotation Xrotation
					JOINT LeftToeBase
					{
						OFFSET 0.157640 -0.433110 2.322550
						CHANNELS 3 Zrotation Yrotation Xrotation
						End Site
						{
							OFFSET 0.000000 0.000000 0.000000
						}
					}
				}
			}
		}
	}
	JOINT RHipJoint
	{
		OFFSET 0.000000 0.000000 0.000000
		CHANNELS 3 Zrotation Yrotation Xrotation
		JOINT RightUpLeg
		{
			OFFSET -1.305520 -1.794630 0.839290
			CHANNELS 3 Zrotation Yrotation Xrotation
			JOINT RightLeg
			{
				OFFSET -2.542530 -6.985550 0.000000
				CHANNELS 3 Zrotation Yrotation Xrotation
				JOINT RightFoot
				{
					OFFSET -2.568260 -7.056230 0.000000
					CHANNELS 3 Zrotation Yrotation Xrotation
					JOINT RightToeBase
					{
						OFFSET -0.164730 -0.452590 2.363150
						CHANNELS 3 Zrotation Yrotation Xrotation
						End Site
						{
							OFFSET 0.000000 0.000000 0.000000
						}
					}
				}
			}
		}
	}
}
MOTION
Frames: 33
Frame Time: 0.008333
3.061105 16.805505 0.902148 171.097146 -76.688870 -165.526419 -10.887987 2.251485 1.152340 -6.741257 13.675721 -15.397577 -1.402339 0.133962 25.502745 3.325848 19.275476 -14.145230 -2.278900 0.000000 -42.499100 10.252287 -1.702675 3.711536 -2.471163 0.696380 -21.298577 0.838898 -1.389610 29.991412 -1.496289 -5.810525 -8.537532 -0.150100 0.000000 -63.395600
3.047517 16.821370 0.922035 172.220873 -74.398075 -166.679942 -10.932618 2.341539 0.906860 -6.991255 15.078876 -14.795056 -1.436419 0.106592 24.671197 3.424627 20.053965 -13.890652 -2.263000 0.000001 -42.261500 10.203056 -1.717501 4.002499 -2.788266 1.954529 -21.517046 0.846615 -1.350370 29.417797 -1.305829 -4.872418 -7.928706 -0.195700 0.000000 -63.898600
3.027654 16.843616 0.944650 173.143036 -72.021433 -167.606115 -10.988877 2.449894 0.680382 -7.239426 16.585139 -14.156108 -1.477258 0.062127 23.610748 3.508375 20.787059 -13.507101 -2.186800 -0.000000 -42.071700 10.140311 -1.754947 4.316744 -3.097213 3.155533 -21.701785 0.873592 -1.290265 28.571935 -1.090940 -3.817297 -7.176618 -0.233000 0.000000 -64.487800
3.001541 16.871631 0.968669 173.909994 -69.584647 -168.341865 -11.063051 2.575751 0.478945 -7.483691 18.173767 -13.503306 -1.524884 0.001218 22.334911 3.574968 21.464508 -12.992703 -2.044399 0.000000 -41.943900 10.058406 -1.815680 4.654813 -3.390359 4.303307 -21.859264 0.920071 -1.208937 27.465394 -0.857162 -2.667928 -6.295866 -0.251500 -0.000000 -65.154199
2.969810 16.904363 0.992596 174.558756 -67.112995 -168.916567 -11.160796 2.716525 0.305093 -7.720627 19.824062 -12.862453 -1.579222 -0.074264 20.873866 3.622850 22.077597 -12.353645 -1.834400 -0.000001 -41.888200 9.952050 -1.899493 5.017573 -3.660130 5.415699 -21.997818 0.985701 -1.107436 26.124796 -0.611909 -1.457748 -5.309462 -0.242400 -0.000000 -65.879601
2.933828 16.940398 1.015138 175.121666 -64.633796 -169.361247 -11.286697 2.867772 0.156862 -7.942770 21.517670 -12.257908 -1.640111 -0.161005 19.273971 3.650691 22.616593 -11.604813 -1.560600 0.000000 -41.909500 9.816667 -2.005102 5.404654 -3.898853 6.520707 -22.121211 1.069682 -0.988207 24.589375 -0.363750 -0.228983 -4.246372 -0.199800 -0.000001 -66.636000
2.895314 16.978092 1.034981 175.619437 -62.180670 -169.695495 -11.441750 3.024123 0.030265 -8.145783 23.231680 -11.713798 -1.707218 -0.255031 17.595230 3.658319 23.074163 -10.769710 -1.233000 0.000000 -42.005500 9.650575 -2.130031 5.815612 -4.106072 7.649476 -22.235257 1.170057 -0.855152 22.914408 -0.122047 0.969677 -3.145994 -0.123000 -0.000001 -67.385500
2.856727 17.015695 1.051406 176.068352 -59.795034 -169.947925 -11.623804 3.179050 -0.081843 -8.319075 24.943757 -11.244858 -1.779893 -0.351351 15.906932 3.645950 23.440973 -9.881294 -0.867900 -0.000000 -42.164900 9.454757 -2.270012 6.246259 -4.281868 8.827484 -22.335121 1.283895 -0.713077 21.161830 0.103942 2.086114 -2.051528 -0.017800 0.000000 -68.087500
2.820406 17.051548 1.064117 176.480455 -57.527308 -170.144258 -11.825715 3.326740 -0.185248 -8.454075 26.623965 -10.858322 -1.856864 -0.445193 14.279258 3.615156 23.710624 -8.977810 -0.486200 -0.000000 -42.371500 9.234747 -2.419650 6.690525 -4.431900 10.066615 -22.413931 1.406595 -0.567457 19.401291 0.305830 3.070853 -1.010566 0.104600 0.000001 -68.700900
2.788860 17.084296 1.073343 176.861120 -55.435778 -170.312053 -12.035626 3.462325 -0.283912 -8.541247 28.234961 -10.550141 -1.936032 -0.532124 12.774873 3.568748 23.880480 -8.100004 -0.110900 0.000000 -42.604300 9.000889 -2.571624 7.138078 -4.562017 11.357781 -22.459680 1.531993 -0.423984 17.702626 0.476797 3.882226 -0.069639 0.228399 -0.000000 -69.192201
2.764088 17.112966 1.079894 177.218438 -53.581593 -170.480750 -12.238473 3.582819 -0.378443 -8.570907 29.731504 -10.306494 -2.014306 -0.608432 11.442077 3.510809 23.953450 -7.286540 0.235900 -0.000001 -42.839800 8.767578 -2.717302 7.574317 -4.673785 12.669304 -22.456500 1.653168 -0.287882 16.129089 0.612050 4.490559 0.731677 0.336899 0.000000 -69.540400
2.747413 17.137007 1.085028 177.560941 -52.021953 -170.676395 -12.418215 3.687146 -0.466775 -8.534849 31.062871 -10.107718 -2.087991 -0.671128 10.310074 3.446350 23.938268 -6.570344 0.536400 0.000000 -43.055600 8.551874 -2.846422 7.980002 -4.761844 13.949039 -22.387387 1.763463 -0.163297 14.731825 0.709128 4.881395 1.364960 0.415401 0.000000 -69.742400
2.739422 17.156392 1.090141 177.898247 -50.803641 -170.918261 -12.561009 3.775948 -0.545465 -8.428266 32.177583 -9.932789 -2.153248 -0.717832 9.389120 3.380675 23.848091 -5.975579 0.778700 0.000000 -43.231000 8.370967 -2.947815 8.331645 -4.812407 15.128754 -22.235483 1.857759 -0.052766 13.545162 0.768099 5.056780 1.818263 0.454500 -0.000001 -69.812800
2.739995 17.171415 1.096661 178.235558 -49.958717 -171.214878 -12.658206 3.851134 -0.610306 -8.252557 33.028288 -9.764417 -2.206639 -0.746843 8.672165 3.318636 23.698371 -5.515263 0.957800 0.000000 -43.344400 8.239024 -3.010941 8.603909 -4.806657 16.131657 -21.984640 1.933335 0.043357 12.581879 0.791601 5.034717 2.097760 0.451900 -0.000000 -69.784000
2.748110 17.182705 1.105694 178.572176 -49.503463 -171.562390 -12.708443 3.916365 -0.655326 -8.018820 33.576314 -9.590175 -2.245408 -0.757555 8.136860 3.264026 23.505559 -5.188606 1.076600 -0.000000 -43.398500 8.164521 -3.028453 8.772930 -4.726487 16.875871 -21.622567 1.990029 0.126739 11.836508 0.785086 4.850237 2.225664 0.412500 0.000000 -69.702800
2.762329 17.191048 1.117917 178.897730 -49.439596 -171.949386 -12.717119 3.976398 -0.672899 -7.745580 33.799237 -9.404532 -2.268081 -0.750497 7.754260 3.218648 23.281047 -4.986430 1.141499 -0.000000 -43.381500 8.148962 -2.998252 8.820430 -4.558892 17.282454 -21.140012 2.029870 0.200699 11.284674 0.756458 4.551700 2.236984 0.346700 -0.000000 -69.626400
2.780865 17.197322 1.133566 179.196280 -49.755063 -172.359791 -12.693442 4.036710 -0.654713 -7.456710 33.692641 -9.206978 -2.274325 -0.727404 7.491689 3.182489 23.032668 -4.889634 1.163200 0.000000 -43.292900 8.188089 -2.924079 8.737042 -4.302943 17.287962 -20.532086 2.055878 0.269374 10.885546 0.714989 4.193156 2.175175 0.267500 -0.000001 -69.616000
2.801717 17.202313 1.152323 179.450055 -50.421313 -172.774367 -12.646474 4.102941 -0.593891 -7.179200 33.270282 -8.998437 -2.264866 -0.691224 7.314341 3.154408 22.767740 -4.871076 1.154900 0.000000 -43.143800 8.275025 -2.813647 8.522156 -3.972747 16.847411 -19.807610 2.071093 0.336102 10.595644 0.671096 3.835281 2.083655 0.188700 -0.000000 -69.726800
2.822961 17.206790 1.173513 179.647485 -51.391687 -173.175058 -12.582760 4.178624 -0.490114 -6.934956 32.568549 -8.780684 -2.241857 -0.645344 7.191570 3.132116 22.490653 -4.899299 1.130500 -0.000000 -42.958700 8.401274 -2.676836 8.185464 -3.596937 15.957474 -18.983036 2.078036 0.403331 10.362977 0.633404 3.525762 2.004239 0.120800 0.000000 -70.000700
2.842745 17.211453 1.196010 179.783210 -52.600126 -173.540231 -12.504955 4.264155 -0.350408 -6.742353 31.638425 -8.555034 -2.208188 -0.593604 7.095692 3.113824 22.210925 -4.940124 1.104900 0.000000 -42.756200 8.558787 -2.523129 7.745216 -3.216250 14.656529 -18.090524 2.078303 0.471288 10.143395 0.608360 3.300822 1.970338 0.071200 -0.000001 -70.453600
2.859778 17.216984 1.218229 179.852422 -53.964844 -173.843004 -12.412657 4.355829 -0.188499 -6.615366 30.540093 -8.324399 -2.166881 -0.539976 7.003238 3.098912 21.946158 -4.956346 1.093700 0.000001 -42.568900 8.739496 -2.361036 7.229713 -2.876476 13.035236 -17.171321 2.072641 0.538688 9.895662 0.597959 3.169908 2.006528 0.041700 0.000000 -71.074000
2.872732 17.224133 1.238196 179.848072 -55.393243 -174.049221 -12.307349 4.447973 -0.018334 -6.565612 29.338238 -8.095267 -2.120587 -0.488972 6.896154 3.088331 21.722651 -4.913048 1.111600 0.000000 -42.423900 8.932535 -2.200338 6.678346 -2.620044 11.228088 -16.272784 2.061786 0.603468 9.590536 0.600400 3.120116 2.124499 0.029901 0.000000 -71.819701
2.880356 17.233067 1.253958 179.744977 -56.784975 -174.122150 -12.199369 4.537765 0.154108 -6.599773 28.111060 -7.876851 -2.072340 -0.445256 6.768857 3.082627 21.561985 -4.788622 1.166800 -0.000000 -42.346100 9.119760 -2.055456 6.142161 -2.476915 9.392675 -15.439468 2.047464 0.664358 9.218924 0.611945 3.127672 2.315503 0.031201 0.000000 -72.625600
2.881977 17.243288 1.264593 179.519201 -58.031462 -174.049071 -12.104118 4.623936 0.322853 -6.705858 26.956893 -7.668740 -2.025612 -0.410664 6.632257 3.081251 21.472901 -4.585265 1.256800 0.000000 -42.354799 9.281232 -1.939357 5.669625 -2.452693 7.687865 -14.697307 2.032145 0.719951 8.795092 0.628713 3.170237 2.554239 0.041000 0.000000 -73.417601
2.877539 17.253853 1.270244 179.178450 -59.027537 -173.858196 -12.032889 4.706073 0.480321 -6.856864 25.975271 -7.463419 -1.983244 -0.384113 6.508338 3.083558 21.456261 -4.322961 1.372200 0.000000 -42.457800 9.403839 -1.860645 5.299142 -2.529889 6.256628 -14.056452 2.017764 0.768571 8.348227 0.647157 3.228112 2.809334 0.055000 -0.000000 -74.123299
2.867761 17.263900 1.271471 178.771158 -59.689607 -173.604788 -11.986606 4.779752 0.610663 -7.022497 25.241247 -7.254500 -1.946519 -0.362919 6.419976 3.090742 21.517821 -4.026460 1.503800 -0.000000 -42.651500 9.486116 -1.820268 5.050673 -2.678021 5.216561 -13.522119 2.004393 0.807499 7.910148 0.663386 3.279063 3.053053 0.068500 -0.000001 -74.682500
2.853916 17.272906 1.268924 178.367066 -59.967814 -173.353434 -11.960175 4.837440 0.694576 -7.176741 24.797232 -7.042324 -1.915396 -0.344447 6.386081 3.105000 21.665700 -3.718210 1.645100 0.000000 -42.922900 9.533238 -1.814232 4.928342 -2.864247 4.650239 -13.101160 1.990897 0.833488 7.510534 0.673711 3.300818 3.266164 0.076700 0.000001 -75.051301
2.837325 17.280450 1.263183 178.028910 -59.848138 -173.158921 -11.949014 4.873806 0.717968 -7.300542 24.661659 -6.831084 -1.889531 -0.327225 6.420759 3.127647 21.902372 -3.416825 1.790600 0.000001 -43.254099 9.550641 -1.838565 4.927374 -3.061888 4.594016 -12.800320 1.976234 0.843881 7.178702 0.675947 3.280586 3.436301 0.076800 -0.000000 -75.205599
2.819360 17.286083 1.254780 177.784242 -59.350982 -173.055499 -11.952540 4.888674 0.677666 -7.381282 24.837238 -6.627108 -1.869029 -0.311061 6.534843 3.157388 22.215545 -3.138114 1.933900 -0.000001 -43.632900 9.540325 -1.891492 5.039362 -3.255369 5.031126 -12.624472 1.960362 0.837254 6.945090 0.670448 3.223350 3.554517 0.069300 -0.000000 -75.142200
2.800846 17.289321 1.244199 177.633708 -58.534599 -173.051610 -11.971270 4.884509 0.579192 -7.412641 25.306353 -6.433627 -1.853742 -0.297124 6.732051 3.191249 22.582854 -2.894337 2.068000 -0.000000 -44.039201 9.503105 -1.972416 5.251432 -3.440050 5.893776 -12.574172 1.944060 0.812458 6.838371 0.659552 3.149993 3.615406 0.058400 -0.000001 -74.877900
2.782936 17.289937 1.232174 177.565631 -57.476849 -173.141427 -12.003612 4.862090 0.426918 -7.388858 26.028949 -6.252752 -1.843130 -0.284861 7.010683 3.226295 22.979322 -2.692468 2.187400 0.000001 -44.462100 9.442246 -2.073975 5.537626 -3.612349 7.079732 -12.641595 1.928356 0.768536 6.875713 0.646111 3.083067 3.625772 0.049400 0.000000 -74.445400
2.766243 17.287729 1.219789 177.571123 -56.260267 -173.310272 -12.046276 4.821992 0.222371 -7.304695 26.949050 -6.080190 -1.836912 -0.272423 7.361335 3.260062 23.378882 -2.539898 2.285700 0.000000 -44.887200 9.364470 -2.182478 5.858581 -3.766372 8.460815 -12.810482 1.914785 0.705664 7.064834 0.634000 3.050890 3.597424 0.048400 -0.000000 -73.892200
2.751024 17.282539 1.208283 177.634973 -54.969890 -173.538944 -12.096642 4.766065 -0.028709 -7.157796 27.999185 -5.908100 -1.834788 -0.257841 7.769063 3.290707 23.756767 -2.445972 2.355600 0.000000 -45.299000 9.276978 -2.283466 6.172543 -3.893597 9.895817 -13.057284 1.904838 0.625731 7.403651 0.627473 3.081746 3.542991 0.061501 0.000000 -73.274100
